<?xml version="1.0" encoding="UTF-8"?>
<svg version="1.1" xmlns="http://www.w3.org/2000/svg" width="50" height="50">
<path d="M0 0 C0.74701172 -0.020625 1.49402344 -0.04125 2.26367188 -0.0625 C10.04358749 -0.11714383 15.07297437 2.87958418 20.6875 8.25 C24.386711 13.63680726 25.40491054 17.63367309 25.3125 24.125 C25.30101929 25.3164563 25.30101929 25.3164563 25.28930664 26.53198242 C25.04043313 33.10183855 23.55710401 37.62493943 18.6875 42.25 C12.82516455 47.33316428 7.98023617 48.44830766 0.375 48.5 C-0.37201172 48.520625 -1.11902344 48.54125 -1.88867188 48.5625 C-9.66858749 48.61714383 -14.69797437 45.62041582 -20.3125 40.25 C-24.011711 34.86319274 -25.02991054 30.86632691 -24.9375 24.375 C-24.92984619 23.5806958 -24.92219238 22.7863916 -24.91430664 21.96801758 C-24.66543313 15.39816145 -23.18210401 10.87506057 -18.3125 6.25 C-12.45016455 1.16683572 -7.60523617 0.05169234 0 0 Z " fill="#FCFBFB" transform="translate(25.3125,0.75)"/>
<path d="M0 0 C7.67797561 1.38203561 12.22871443 9.22835704 16.5625 15.125 C17.21154297 15.97513672 17.86058594 16.82527344 18.52929688 17.70117188 C19.13708984 18.52294922 19.74488281 19.34472656 20.37109375 20.19140625 C21.20145142 21.3062439 21.20145142 21.3062439 22.04858398 22.44360352 C23.125 24.5625 23.125 24.5625 22.79711914 26.83569336 C22.57531982 27.40553955 22.35352051 27.97538574 22.125 28.5625 C18.14234765 28.14764038 14.91976329 27.55131157 11.25 25.9375 C6.72529836 24.10100345 2.83175145 24.65819359 -1.875 25.5625 C-2.205 24.5725 -2.535 23.5825 -2.875 22.5625 C-3.82761719 23.00722656 -4.78023437 23.45195312 -5.76171875 23.91015625 C-7.02832754 24.48247578 -8.29527264 25.05405141 -9.5625 25.625 C-10.18833984 25.91955078 -10.81417969 26.21410156 -11.45898438 26.51757812 C-15.33521568 28.24260253 -17.80142725 28.92555016 -21.875 27.5625 C-21.25260872 24.11420825 -19.93197063 21.95662302 -17.85546875 19.15625 C-17.24509766 18.32996094 -16.63472656 17.50367187 -16.00585938 16.65234375 C-15.36455078 15.79769531 -14.72324219 14.94304688 -14.0625 14.0625 C-13.43279297 13.20785156 -12.80308594 12.35320313 -12.15429688 11.47265625 C-4.24297828 0.83014793 -4.24297828 0.83014793 0 0 Z " fill="#151111" transform="translate(24.875,6.4375)"/>
<path d="M0 0 C4.33090698 0.83406698 5.70700002 2.65153902 8.4375 6.125 C9.21867187 7.11628906 9.99984375 8.10757812 10.8046875 9.12890625 C11.89136719 10.55009766 11.89136719 10.55009766 13 12 C13.55945313 12.73089844 14.11890625 13.46179688 14.6953125 14.21484375 C18 18.68089286 18 18.68089286 18 21 C17.07380859 20.65775391 17.07380859 20.65775391 16.12890625 20.30859375 C9.88207396 18.18828386 5.49389936 17.84785657 -1 19 C-1.33 18.01 -1.66 17.02 -2 16 C-8.435 18.475 -8.435 18.475 -15 21 C-13.41872745 17.04681862 -12.52302716 15.10129746 -9.9609375 12.01171875 C-9.38085938 11.30595703 -8.80078125 10.60019531 -8.203125 9.87304688 C-7.59984375 9.15181641 -6.9965625 8.43058594 -6.375 7.6875 C-5.76398437 6.94693359 -5.15296875 6.20636719 -4.5234375 5.44335938 C-3.02116023 3.62419549 -1.513276 1.81001549 0 0 Z " fill="#DC0B0B" transform="translate(24,13)"/>
<path d="M0 0 C0.38218767 1.65614657 0.71395102 3.32457024 1 5 C0 6 0 6 -2.5 6.125 C-5 6 -5 6 -6 5 C-6.04063832 3.33382885 -6.042721 1.66611905 -6 0 C-3.50907189 -1.24546405 -2.58919267 -0.7767578 0 0 Z " fill="#1A1010" transform="translate(28,26)"/>
</svg>
